# Blender 5.1.1
# www.blender.org
mtllib luz_techo.mtl
o Cylinder
v 0.000000 0.457763 -1.000000
v 0.000000 0.062889 -1.000000
v 0.195090 0.457763 -0.980785
v 0.195090 0.062889 -0.980785
v 0.382683 0.457763 -0.923880
v 0.382683 0.062889 -0.923880
v 0.555570 0.457763 -0.831470
v 0.555570 0.062889 -0.831470
v 0.707107 0.457763 -0.707107
v 0.707107 0.062889 -0.707107
v 0.831470 0.457763 -0.555570
v 0.831470 0.062889 -0.555570
v 0.923880 0.457763 -0.382683
v 0.923880 0.062889 -0.382683
v 0.980785 0.457763 -0.195090
v 0.980785 0.062889 -0.195090
v 1.000000 0.457763 0.000000
v 1.000000 0.062889 0.000000
v 0.980785 0.457763 0.195090
v 0.980785 0.062889 0.195090
v 0.923880 0.457763 0.382683
v 0.923880 0.062889 0.382683
v 0.831470 0.457763 0.555570
v 0.831470 0.062889 0.555570
v 0.707107 0.457763 0.707107
v 0.707107 0.062889 0.707107
v 0.555570 0.457763 0.831470
v 0.555570 0.062889 0.831470
v 0.382683 0.457763 0.923880
v 0.382683 0.062889 0.923880
v 0.195090 0.457763 0.980785
v 0.195090 0.062889 0.980785
v 0.000000 0.457763 1.000000
v 0.000000 0.062889 1.000000
v -0.195090 0.457763 0.980785
v -0.195090 0.062889 0.980785
v -0.382683 0.457763 0.923880
v -0.382683 0.062889 0.923880
v -0.555570 0.457763 0.831470
v -0.555570 0.062889 0.831470
v -0.707107 0.457763 0.707107
v -0.707107 0.062889 0.707107
v -0.831470 0.457763 0.555570
v -0.831470 0.062889 0.555570
v -0.923880 0.457763 0.382683
v -0.923880 0.062889 0.382683
v -0.980785 0.457763 0.195090
v -0.980785 0.062889 0.195090
v -1.000000 0.457763 0.000000
v -1.000000 0.062889 0.000000
v -0.980785 0.457763 -0.195090
v -0.980785 0.062889 -0.195090
v -0.923880 0.457763 -0.382683
v -0.923880 0.062889 -0.382683
v -0.831470 0.457763 -0.555570
v -0.831470 0.062889 -0.555570
v -0.707107 0.457763 -0.707107
v -0.707107 0.062889 -0.707107
v -0.555570 0.457763 -0.831470
v -0.555570 0.062889 -0.831470
v -0.382683 0.457763 -0.923880
v -0.382683 0.062889 -0.923880
v -0.195090 0.457763 -0.980785
v -0.195090 0.062889 -0.980785
v 0.000000 0.069639 -1.000000
v -0.195090 0.069639 -0.980785
v -0.382683 0.069639 -0.923879
v -0.555570 0.069639 -0.831470
v -0.707107 0.069639 -0.707107
v -0.831470 0.069639 -0.555570
v -0.923879 0.069639 -0.382683
v -0.980785 0.069639 -0.195090
v -1.000000 0.069639 0.000000
v -0.980785 0.069639 0.195090
v -0.923879 0.069639 0.382683
v -0.831470 0.069639 0.555570
v -0.707107 0.069639 0.707107
v -0.555570 0.069639 0.831470
v -0.382683 0.069639 0.923879
v -0.195090 0.069639 0.980785
v 0.000000 0.069639 1.000000
v 0.195090 0.069639 0.980785
v 0.382683 0.069639 0.923879
v 0.555570 0.069639 0.831470
v 0.707107 0.069639 0.707107
v 0.831470 0.069639 0.555570
v 0.923879 0.069639 0.382683
v 0.980785 0.069639 0.195090
v 1.000000 0.069639 0.000000
v 0.980785 0.069639 -0.195090
v 0.923879 0.069639 -0.382683
v 0.831470 0.069639 -0.555570
v 0.707107 0.069639 -0.707107
v 0.555570 0.069639 -0.831470
v 0.382683 0.069639 -0.923879
v 0.195090 0.069639 -0.980785
v 0.000000 0.069639 -1.000000
v -0.195090 0.069639 -0.980785
v -0.382683 0.069639 -0.923879
v -0.555570 0.069639 -0.831470
v -0.707107 0.069639 -0.707107
v -0.831470 0.069639 -0.555570
v -0.923879 0.069639 -0.382683
v -0.980785 0.069639 -0.195090
v -1.000000 0.069639 0.000000
v -0.980785 0.069639 0.195090
v -0.923879 0.069639 0.382683
v -0.831470 0.069639 0.555570
v -0.707107 0.069639 0.707107
v -0.555570 0.069639 0.831470
v -0.382683 0.069639 0.923879
v -0.195090 0.069639 0.980785
v 0.000000 0.069639 1.000000
v 0.195090 0.069639 0.980785
v 0.382683 0.069639 0.923879
v 0.555570 0.069639 0.831470
v 0.707107 0.069639 0.707107
v 0.831470 0.069639 0.555570
v 0.923879 0.069639 0.382683
v 0.980785 0.069639 0.195090
v 1.000000 0.069639 0.000000
v 0.980785 0.069639 -0.195090
v 0.923879 0.069639 -0.382683
v 0.831470 0.069639 -0.555570
v 0.707107 0.069639 -0.707107
v 0.555570 0.069639 -0.831470
v 0.382683 0.069639 -0.923879
v 0.195090 0.069639 -0.980785
vn 0.0980 -0.0000 -0.9952
vn 0.2903 -0.0000 -0.9569
vn 0.4714 -0.0000 -0.8819
vn 0.6344 -0.0000 -0.7730
vn 0.7730 -0.0000 -0.6344
vn 0.8819 -0.0000 -0.4714
vn 0.9569 -0.0000 -0.2903
vn 0.9952 -0.0000 -0.0980
vn 0.9952 -0.0000 0.0980
vn 0.9569 -0.0000 0.2903
vn 0.8819 -0.0000 0.4714
vn 0.7730 -0.0000 0.6344
vn 0.6344 -0.0000 0.7730
vn 0.4714 -0.0000 0.8819
vn 0.2903 -0.0000 0.9569
vn 0.0980 -0.0000 0.9952
vn -0.0980 -0.0000 0.9952
vn -0.2903 -0.0000 0.9569
vn -0.4714 -0.0000 0.8819
vn -0.6344 -0.0000 0.7730
vn -0.7730 -0.0000 0.6344
vn -0.8819 -0.0000 0.4714
vn -0.9569 -0.0000 0.2903
vn -0.9952 -0.0000 0.0980
vn -0.9952 -0.0000 -0.0980
vn -0.9569 -0.0000 -0.2903
vn -0.8819 -0.0000 -0.4714
vn -0.7730 -0.0000 -0.6344
vn -0.6344 -0.0000 -0.7730
vn -0.4714 -0.0000 -0.8819
vn -0.0000 -1.0000 -0.0000
vn -0.2903 -0.0000 -0.9569
vn -0.0980 -0.0000 -0.9952
vn -0.0000 1.0000 -0.0000
vt 1.000000 0.500000
vt 1.000000 1.000000
vt 0.968750 1.000000
vt 0.968750 0.500000
vt 0.937500 1.000000
vt 0.937500 0.500000
vt 0.906250 1.000000
vt 0.906250 0.500000
vt 0.875000 1.000000
vt 0.875000 0.500000
vt 0.843750 1.000000
vt 0.843750 0.500000
vt 0.812500 1.000000
vt 0.812500 0.500000
vt 0.781250 1.000000
vt 0.781250 0.500000
vt 0.750000 1.000000
vt 0.750000 0.500000
vt 0.718750 1.000000
vt 0.718750 0.500000
vt 0.687500 1.000000
vt 0.687500 0.500000
vt 0.656250 1.000000
vt 0.656250 0.500000
vt 0.625000 1.000000
vt 0.625000 0.500000
vt 0.593750 1.000000
vt 0.593750 0.500000
vt 0.562500 1.000000
vt 0.562500 0.500000
vt 0.531250 1.000000
vt 0.531250 0.500000
vt 0.500000 1.000000
vt 0.500000 0.500000
vt 0.468750 1.000000
vt 0.468750 0.500000
vt 0.437500 1.000000
vt 0.437500 0.500000
vt 0.406250 1.000000
vt 0.406250 0.500000
vt 0.375000 1.000000
vt 0.375000 0.500000
vt 0.343750 1.000000
vt 0.343750 0.500000
vt 0.312500 1.000000
vt 0.312500 0.500000
vt 0.281250 1.000000
vt 0.281250 0.500000
vt 0.250000 1.000000
vt 0.250000 0.500000
vt 0.218750 1.000000
vt 0.218750 0.500000
vt 0.187500 1.000000
vt 0.187500 0.500000
vt 0.156250 1.000000
vt 0.156250 0.500000
vt 0.125000 1.000000
vt 0.125000 0.500000
vt 0.093750 1.000000
vt 0.093750 0.500000
vt 0.062500 1.000000
vt 0.062500 0.500000
vt 0.296822 0.485388
vt 0.250000 0.490000
vt 0.203178 0.485388
vt 0.158156 0.471731
vt 0.116663 0.449553
vt 0.080294 0.419706
vt 0.050447 0.383337
vt 0.028269 0.341844
vt 0.014612 0.296822
vt 0.010000 0.250000
vt 0.014612 0.203178
vt 0.028269 0.158156
vt 0.050447 0.116663
vt 0.080294 0.080294
vt 0.116663 0.050447
vt 0.158156 0.028269
vt 0.203178 0.014612
vt 0.250000 0.010000
vt 0.296822 0.014612
vt 0.341844 0.028269
vt 0.383337 0.050447
vt 0.419706 0.080294
vt 0.449553 0.116663
vt 0.471731 0.158156
vt 0.485388 0.203178
vt 0.490000 0.250000
vt 0.485388 0.296822
vt 0.471731 0.341844
vt 0.449553 0.383337
vt 0.419706 0.419706
vt 0.383337 0.449553
vt 0.341844 0.471731
vt 0.031250 1.000000
vt 0.031250 0.500000
vt 0.000000 1.000000
vt 0.000000 0.500000
vt 0.750000 0.490000
vt 0.796822 0.485388
vt 0.841844 0.471731
vt 0.883337 0.449553
vt 0.919706 0.419706
vt 0.949553 0.383337
vt 0.971731 0.341844
vt 0.985388 0.296822
vt 0.990000 0.250000
vt 0.985388 0.203178
vt 0.971731 0.158156
vt 0.949553 0.116663
vt 0.919706 0.080294
vt 0.883337 0.050447
vt 0.841844 0.028269
vt 0.796822 0.014612
vt 0.750000 0.010000
vt 0.703178 0.014612
vt 0.658156 0.028269
vt 0.616663 0.050447
vt 0.580294 0.080294
vt 0.550447 0.116663
vt 0.528269 0.158156
vt 0.514612 0.203178
vt 0.510000 0.250000
vt 0.514612 0.296822
vt 0.528269 0.341844
vt 0.550447 0.383337
vt 0.580294 0.419706
vt 0.616663 0.449553
vt 0.658156 0.471731
vt 0.703178 0.485388
s 0
usemtl material_base
f 1/1/1 3/4/1 4/3/1 2/2/1
f 3/4/2 5/6/2 6/5/2 4/3/2
f 5/6/3 7/8/3 8/7/3 6/5/3
f 7/8/4 9/10/4 10/9/4 8/7/4
f 9/10/5 11/12/5 12/11/5 10/9/5
f 11/12/6 13/14/6 14/13/6 12/11/6
f 13/14/7 15/16/7 16/15/7 14/13/7
f 15/16/8 17/18/8 18/17/8 16/15/8
f 17/18/9 19/20/9 20/19/9 18/17/9
f 19/20/10 21/22/10 22/21/10 20/19/10
f 21/22/11 23/24/11 24/23/11 22/21/11
f 23/24/12 25/26/12 26/25/12 24/23/12
f 25/26/13 27/28/13 28/27/13 26/25/13
f 27/28/14 29/30/14 30/29/14 28/27/14
f 29/30/15 31/32/15 32/31/15 30/29/15
f 31/32/16 33/34/16 34/33/16 32/31/16
f 33/34/17 35/36/17 36/35/17 34/33/17
f 35/36/18 37/38/18 38/37/18 36/35/18
f 37/38/19 39/40/19 40/39/19 38/37/19
f 39/40/20 41/42/20 42/41/20 40/39/20
f 41/42/21 43/44/21 44/43/21 42/41/21
f 43/44/22 45/46/22 46/45/22 44/43/22
f 45/46/23 47/48/23 48/47/23 46/45/23
f 47/48/24 49/50/24 50/49/24 48/47/24
f 49/50/25 51/52/25 52/51/25 50/49/25
f 51/52/26 53/54/26 54/53/26 52/51/26
f 53/54/27 55/56/27 56/55/27 54/53/27
f 55/56/28 57/58/28 58/57/28 56/55/28
f 57/58/29 59/60/29 60/59/29 58/57/29
f 59/60/30 61/62/30 62/61/30 60/59/30
f 4/63/31 6/94/31 8/93/31 10/92/31 12/91/31 14/90/31 16/89/31 18/88/31 20/87/31 22/86/31 24/85/31 26/84/31 28/83/31 30/82/31 32/81/31 34/80/31 36/79/31 38/78/31 40/77/31 42/76/31 44/75/31 46/74/31 48/73/31 50/72/31 52/71/31 54/70/31 56/69/31 58/68/31 60/67/31 62/66/31 64/65/31 2/64/31
f 61/62/32 63/96/32 64/95/32 62/61/32
f 63/96/33 1/98/33 2/97/33 64/95/33
f 1/99/34 63/130/34 61/129/34 59/128/34 57/127/34 55/126/34 53/125/34 51/124/34 49/123/34 47/122/34 45/121/34 43/120/34 41/119/34 39/118/34 37/117/34 35/116/34 33/115/34 31/114/34 29/113/34 27/112/34 25/111/34 23/110/34 21/109/34 19/108/34 17/107/34 15/106/34 13/105/34 11/104/34 9/103/34 7/102/34 5/101/34 3/100/34
l 66 65
l 67 66
l 68 67
l 69 68
l 70 69
l 71 70
l 72 71
l 73 72
l 74 73
l 75 74
l 76 75
l 77 76
l 78 77
l 79 78
l 80 79
l 81 80
l 82 81
l 83 82
l 84 83
l 85 84
l 86 85
l 87 86
l 88 87
l 89 88
l 90 89
l 91 90
l 92 91
l 93 92
l 94 93
l 95 94
l 96 95
l 65 96
l 98 97
l 99 98
l 100 99
l 101 100
l 102 101
l 103 102
l 104 103
l 105 104
l 106 105
l 107 106
l 108 107
l 109 108
l 110 109
l 111 110
l 112 111
l 113 112
l 114 113
l 115 114
l 116 115
l 117 116
l 118 117
l 119 118
l 120 119
l 121 120
l 122 121
l 123 122
l 124 123
l 125 124
l 126 125
l 127 126
l 128 127
l 97 128
o Cylinder.001
v 0.000000 0.366895 -0.634765
v 0.000000 0.535420 -0.634765
v 0.115869 0.366895 -0.622568
v 0.115869 0.535420 -0.622568
v 0.227285 0.366895 -0.586446
v 0.227285 0.535420 -0.586446
v 0.329967 0.366895 -0.527788
v 0.329967 0.535420 -0.527788
v 0.419968 0.366895 -0.448847
v 0.419968 0.535420 -0.448847
v 0.493830 0.366895 -0.352657
v 0.493830 0.535420 -0.352657
v 0.548715 0.366895 -0.242914
v 0.548715 0.535420 -0.242914
v 0.582513 0.366895 -0.123837
v 0.582513 0.535420 -0.123837
v 0.593925 0.366895 0.000000
v 0.593925 0.535420 0.000000
v 0.582513 0.366895 0.123837
v 0.582513 0.535420 0.123837
v 0.548715 0.366895 0.242914
v 0.548715 0.535420 0.242914
v 0.493830 0.366895 0.352657
v 0.493830 0.535420 0.352657
v 0.419968 0.366895 0.448847
v 0.419968 0.535420 0.448847
v 0.329967 0.366895 0.527788
v 0.329967 0.535420 0.527788
v 0.227285 0.366895 0.586446
v 0.227285 0.535420 0.586446
v 0.115869 0.366895 0.622568
v 0.115869 0.535420 0.622568
v 0.000000 0.366895 0.634765
v 0.000000 0.535420 0.634765
v -0.115869 0.366895 0.622568
v -0.115869 0.535420 0.622568
v -0.227285 0.366895 0.586446
v -0.227285 0.535420 0.586446
v -0.329967 0.366895 0.527788
v -0.329967 0.535420 0.527788
v -0.419968 0.366895 0.448847
v -0.419968 0.535420 0.448847
v -0.493830 0.366895 0.352657
v -0.493830 0.535420 0.352657
v -0.548715 0.366895 0.242914
v -0.548715 0.535420 0.242914
v -0.582513 0.366895 0.123837
v -0.582513 0.535420 0.123837
v -0.593925 0.366895 0.000000
v -0.593925 0.535420 0.000000
v -0.582513 0.366895 -0.123837
v -0.582513 0.535420 -0.123837
v -0.548715 0.366895 -0.242914
v -0.548715 0.535420 -0.242914
v -0.493830 0.366895 -0.352657
v -0.493830 0.535420 -0.352657
v -0.419968 0.366895 -0.448847
v -0.419968 0.535420 -0.448847
v -0.329967 0.366895 -0.527788
v -0.329967 0.535420 -0.527788
v -0.227285 0.366895 -0.586446
v -0.227285 0.535420 -0.586446
v -0.115869 0.366895 -0.622568
v -0.115869 0.535420 -0.622568
vn 0.1047 -0.0000 -0.9945
vn 0.3084 -0.0000 -0.9513
vn 0.4960 -0.0000 -0.8683
vn 0.6594 -0.0000 -0.7518
vn 0.7931 -0.0000 -0.6090
vn 0.8944 -0.0000 -0.4473
vn 0.9620 -0.0000 -0.2730
vn 0.9958 -0.0000 -0.0918
vn 0.9958 -0.0000 0.0918
vn 0.9620 -0.0000 0.2730
vn 0.8944 -0.0000 0.4473
vn 0.7931 -0.0000 0.6090
vn 0.6594 -0.0000 0.7518
vn 0.4960 -0.0000 0.8683
vn 0.3084 -0.0000 0.9513
vn 0.1047 -0.0000 0.9945
vn -0.1047 -0.0000 0.9945
vn -0.3084 -0.0000 0.9513
vn -0.4960 -0.0000 0.8683
vn -0.6594 -0.0000 0.7518
vn -0.7931 -0.0000 0.6090
vn -0.8944 -0.0000 0.4473
vn -0.9620 -0.0000 0.2730
vn -0.9958 -0.0000 0.0918
vn -0.9958 -0.0000 -0.0918
vn -0.9620 -0.0000 -0.2730
vn -0.8944 -0.0000 -0.4473
vn -0.7931 -0.0000 -0.6090
vn -0.6594 -0.0000 -0.7518
vn -0.4960 -0.0000 -0.8683
vn -0.0000 1.0000 -0.0000
vn -0.3084 -0.0000 -0.9513
vn -0.1047 -0.0000 -0.9945
vn -0.0000 -1.0000 -0.0000
vt 1.000000 0.500000
vt 1.000000 1.000000
vt 0.968750 1.000000
vt 0.968750 0.500000
vt 0.937500 1.000000
vt 0.937500 0.500000
vt 0.906250 1.000000
vt 0.906250 0.500000
vt 0.875000 1.000000
vt 0.875000 0.500000
vt 0.843750 1.000000
vt 0.843750 0.500000
vt 0.812500 1.000000
vt 0.812500 0.500000
vt 0.781250 1.000000
vt 0.781250 0.500000
vt 0.750000 1.000000
vt 0.750000 0.500000
vt 0.718750 1.000000
vt 0.718750 0.500000
vt 0.687500 1.000000
vt 0.687500 0.500000
vt 0.656250 1.000000
vt 0.656250 0.500000
vt 0.625000 1.000000
vt 0.625000 0.500000
vt 0.593750 1.000000
vt 0.593750 0.500000
vt 0.562500 1.000000
vt 0.562500 0.500000
vt 0.531250 1.000000
vt 0.531250 0.500000
vt 0.500000 1.000000
vt 0.500000 0.500000
vt 0.468750 1.000000
vt 0.468750 0.500000
vt 0.437500 1.000000
vt 0.437500 0.500000
vt 0.406250 1.000000
vt 0.406250 0.500000
vt 0.375000 1.000000
vt 0.375000 0.500000
vt 0.343750 1.000000
vt 0.343750 0.500000
vt 0.312500 1.000000
vt 0.312500 0.500000
vt 0.281250 1.000000
vt 0.281250 0.500000
vt 0.250000 1.000000
vt 0.250000 0.500000
vt 0.218750 1.000000
vt 0.218750 0.500000
vt 0.187500 1.000000
vt 0.187500 0.500000
vt 0.156250 1.000000
vt 0.156250 0.500000
vt 0.125000 1.000000
vt 0.125000 0.500000
vt 0.093750 1.000000
vt 0.093750 0.500000
vt 0.062500 1.000000
vt 0.062500 0.500000
vt 0.296822 0.485388
vt 0.250000 0.490000
vt 0.203178 0.485388
vt 0.158156 0.471731
vt 0.116663 0.449553
vt 0.080294 0.419706
vt 0.050447 0.383337
vt 0.028269 0.341844
vt 0.014612 0.296822
vt 0.010000 0.250000
vt 0.014612 0.203178
vt 0.028269 0.158156
vt 0.050447 0.116663
vt 0.080294 0.080294
vt 0.116663 0.050447
vt 0.158156 0.028269
vt 0.203178 0.014612
vt 0.250000 0.010000
vt 0.296822 0.014612
vt 0.341844 0.028269
vt 0.383337 0.050447
vt 0.419706 0.080294
vt 0.449553 0.116663
vt 0.471731 0.158156
vt 0.485388 0.203178
vt 0.490000 0.250000
vt 0.485388 0.296822
vt 0.471731 0.341844
vt 0.449553 0.383337
vt 0.419706 0.419706
vt 0.383337 0.449553
vt 0.341844 0.471731
vt 0.031250 1.000000
vt 0.031250 0.500000
vt 0.000000 1.000000
vt 0.000000 0.500000
vt 0.750000 0.490000
vt 0.796822 0.485388
vt 0.841844 0.471731
vt 0.883337 0.449553
vt 0.919706 0.419706
vt 0.949553 0.383337
vt 0.971731 0.341844
vt 0.985388 0.296822
vt 0.990000 0.250000
vt 0.985388 0.203178
vt 0.971731 0.158156
vt 0.949553 0.116663
vt 0.919706 0.080294
vt 0.883337 0.050447
vt 0.841844 0.028269
vt 0.796822 0.014612
vt 0.750000 0.010000
vt 0.703178 0.014612
vt 0.658156 0.028269
vt 0.616663 0.050447
vt 0.580294 0.080294
vt 0.550447 0.116663
vt 0.528269 0.158156
vt 0.514612 0.203178
vt 0.510000 0.250000
vt 0.514612 0.296822
vt 0.528269 0.341844
vt 0.550447 0.383337
vt 0.580294 0.419706
vt 0.616663 0.449553
vt 0.658156 0.471731
vt 0.703178 0.485388
s 0
usemtl Materia11
f 129/131/35 130/132/35 132/133/35 131/134/35
f 131/134/36 132/133/36 134/135/36 133/136/36
f 133/136/37 134/135/37 136/137/37 135/138/37
f 135/138/38 136/137/38 138/139/38 137/140/38
f 137/140/39 138/139/39 140/141/39 139/142/39
f 139/142/40 140/141/40 142/143/40 141/144/40
f 141/144/41 142/143/41 144/145/41 143/146/41
f 143/146/42 144/145/42 146/147/42 145/148/42
f 145/148/43 146/147/43 148/149/43 147/150/43
f 147/150/44 148/149/44 150/151/44 149/152/44
f 149/152/45 150/151/45 152/153/45 151/154/45
f 151/154/46 152/153/46 154/155/46 153/156/46
f 153/156/47 154/155/47 156/157/47 155/158/47
f 155/158/48 156/157/48 158/159/48 157/160/48
f 157/160/49 158/159/49 160/161/49 159/162/49
f 159/162/50 160/161/50 162/163/50 161/164/50
f 161/164/51 162/163/51 164/165/51 163/166/51
f 163/166/52 164/165/52 166/167/52 165/168/52
f 165/168/53 166/167/53 168/169/53 167/170/53
f 167/170/54 168/169/54 170/171/54 169/172/54
f 169/172/55 170/171/55 172/173/55 171/174/55
f 171/174/56 172/173/56 174/175/56 173/176/56
f 173/176/57 174/175/57 176/177/57 175/178/57
f 175/178/58 176/177/58 178/179/58 177/180/58
f 177/180/59 178/179/59 180/181/59 179/182/59
f 179/182/60 180/181/60 182/183/60 181/184/60
f 181/184/61 182/183/61 184/185/61 183/186/61
f 183/186/62 184/185/62 186/187/62 185/188/62
f 185/188/63 186/187/63 188/189/63 187/190/63
f 187/190/64 188/189/64 190/191/64 189/192/64
f 132/193/65 130/194/65 192/195/65 190/196/65 188/197/65 186/198/65 184/199/65 182/200/65 180/201/65 178/202/65 176/203/65 174/204/65 172/205/65 170/206/65 168/207/65 166/208/65 164/209/65 162/210/65 160/211/65 158/212/65 156/213/65 154/214/65 152/215/65 150/216/65 148/217/65 146/218/65 144/219/65 142/220/65 140/221/65 138/222/65 136/223/65 134/224/65
f 189/192/66 190/191/66 192/225/66 191/226/66
f 191/226/67 192/225/67 130/227/67 129/228/67
f 129/229/68 131/230/68 133/231/68 135/232/68 137/233/68 139/234/68 141/235/68 143/236/68 145/237/68 147/238/68 149/239/68 151/240/68 153/241/68 155/242/68 157/243/68 159/244/68 161/245/68 163/246/68 165/247/68 167/248/68 169/249/68 171/250/68 173/251/68 175/252/68 177/253/68 179/254/68 181/255/68 183/256/68 185/257/68 187/258/68 189/259/68 191/260/68
