# 3ds Max Wavefront OBJ Exporter v0.99 - (c)2007 guruware
# File Created: 12.05.2026 23:40:15

mtllib piso_fuera.mtl

#
# object Plane001
#

v  -38.3037 -0.9203 34.8055
v  -38.3037 -0.9203 69.6330
v  -11.6749 -0.9203 34.8055
v  -11.6749 -0.9203 69.6330
v  14.9538 -0.9203 34.8055
v  14.9538 -0.9203 69.6330
v  41.5826 -0.9203 34.8055
v  41.5826 -0.9203 69.6330
v  68.2113 -0.9203 34.8055
v  68.2113 -0.9203 69.6330
v  -38.3037 -0.9203 -0.0220
v  -11.6749 -0.9203 -0.0220
v  14.9538 -0.9203 -0.0220
v  41.5826 -0.9203 -0.0220
v  68.2113 -0.9203 -0.0220
v  -38.3037 -0.9203 -34.8495
v  -11.6749 -0.9203 -34.8495
v  14.9538 -0.9203 -34.8495
v  41.5826 -0.9203 -34.8495
v  68.2113 -0.9203 -34.8495
v  -38.3037 -0.9203 -69.6770
v  -11.6749 -0.9203 -69.6770
v  14.9538 -0.9203 -69.6770
v  41.5826 -0.9203 -69.6770
v  68.2113 -0.9203 -69.6770
# 25 vertices

vn 0.0000 1.0000 -0.0000
# 1 vertex normals

vt 0.0493 0.3442 0.6558
vt -0.0000 0.1256 0.8744
vt 0.2500 0.3128 0.6872
vt 0.2007 0.0942 0.9058
vt 0.4507 0.2814 0.7186
vt 0.4014 0.0628 0.9372
vt 0.6514 0.2500 0.7500
vt 0.6021 0.0314 0.9686
vt 0.8521 0.2186 0.7814
vt 0.8027 0.0000 1.0000
vt 0.0986 0.5628 0.4372
vt 0.2993 0.5314 0.4686
vt 0.5000 0.5000 0.5000
vt 0.7007 0.4686 0.5314
vt 0.9014 0.4372 0.5628
vt 0.1479 0.7814 0.2186
vt 0.3486 0.7500 0.2500
vt 0.5493 0.7186 0.2814
vt 0.7500 0.6872 0.3128
vt 0.9507 0.6558 0.3442
vt 0.1973 1.0000 -0.0000
vt 0.3979 0.9686 0.0314
vt 0.5986 0.9372 0.0628
vt 0.7993 0.9058 0.0942
vt 1.0000 0.8744 0.1256
# 25 texture coords

o Plane001
g Plane001
usemtl Material__25
s 1
f 1/1/1 2/2/1 3/3/1 
f 4/4/1 3/3/1 2/2/1 
f 3/3/1 4/4/1 5/5/1 
f 6/6/1 5/5/1 4/4/1 
f 5/5/1 6/6/1 7/7/1 
f 8/8/1 7/7/1 6/6/1 
f 7/7/1 8/8/1 9/9/1 
f 10/10/1 9/9/1 8/8/1 
f 11/11/1 1/1/1 12/12/1 
f 3/3/1 12/12/1 1/1/1 
f 12/12/1 3/3/1 13/13/1 
f 5/5/1 13/13/1 3/3/1 
f 13/13/1 5/5/1 14/14/1 
f 7/7/1 14/14/1 5/5/1 
f 14/14/1 7/7/1 15/15/1 
f 9/9/1 15/15/1 7/7/1 
f 16/16/1 11/11/1 17/17/1 
f 12/12/1 17/17/1 11/11/1 
f 17/17/1 12/12/1 18/18/1 
f 13/13/1 18/18/1 12/12/1 
f 18/18/1 13/13/1 19/19/1 
f 14/14/1 19/19/1 13/13/1 
f 19/19/1 14/14/1 20/20/1 
f 15/15/1 20/20/1 14/14/1 
f 21/21/1 16/16/1 22/22/1 
f 17/17/1 22/22/1 16/16/1 
f 22/22/1 17/17/1 23/23/1 
f 18/18/1 23/23/1 17/17/1 
f 23/23/1 18/18/1 24/24/1 
f 19/19/1 24/24/1 18/18/1 
f 24/24/1 19/19/1 25/25/1 
f 20/20/1 25/25/1 19/19/1 
# 32 faces

