# Blender 5.0.1
# www.blender.org
mtllib Upstairs.mtl
o old_concrete.stairs.01
v -0.907872 -0.000000 -0.000000
v 0.907872 -0.000000 -0.000000
v -0.907872 0.152168 -0.313390
v 0.907872 0.152168 -0.313390
v -0.907872 0.104826 0.000000
v -0.907872 0.106087 0.001261
v -0.907872 0.105717 0.000369
v 0.907872 0.106087 0.001261
v 0.907872 0.104826 0.000000
v 0.907872 0.105717 0.000369
v 0.907872 0.107348 0.005810
v 0.907872 0.106087 0.004549
v 0.907872 0.106456 0.005441
v 0.907872 0.157166 0.004549
v 0.907872 0.155905 0.005810
v 0.907872 0.156796 0.005441
v -0.907872 0.155905 0.005810
v -0.907872 0.157166 0.004549
v -0.907872 0.156796 0.005441
v -0.907872 0.106087 0.004549
v -0.907872 0.107348 0.005810
v -0.907872 0.106456 0.005441
v 0.907872 0.155905 -0.031701
v 0.907872 0.157166 -0.030440
v 0.907872 0.156796 -0.031332
v -0.907872 0.157166 -0.030440
v -0.907872 0.155905 -0.031701
v -0.907872 0.156796 -0.031332
v -0.907872 0.153429 -0.031701
v -0.907872 0.152168 -0.032962
v -0.907872 0.152537 -0.032070
v 0.907872 0.152168 -0.032962
v 0.907872 0.153429 -0.031701
v 0.907872 0.152537 -0.032070
v -0.907872 0.152136 -0.313135
v 0.907872 0.152136 -0.313135
v -0.907872 0.304305 -0.626526
v 0.907872 0.304305 -0.626526
v -0.907872 0.256962 -0.313135
v -0.907872 0.258223 -0.311874
v -0.907872 0.257854 -0.312766
v 0.907872 0.258223 -0.311874
v 0.907872 0.256962 -0.313135
v 0.907872 0.257854 -0.312766
v 0.907872 0.259484 -0.307326
v 0.907872 0.258223 -0.308587
v 0.907872 0.258593 -0.307695
v 0.907872 0.309302 -0.308587
v 0.907872 0.308041 -0.307326
v 0.907872 0.308933 -0.307695
v -0.907872 0.308041 -0.307326
v -0.907872 0.309302 -0.308587
v -0.907872 0.308933 -0.307695
v -0.907872 0.258223 -0.308587
v -0.907872 0.259484 -0.307326
v -0.907872 0.258592 -0.307695
v 0.907872 0.308041 -0.344837
v 0.907872 0.309302 -0.343576
v 0.907872 0.308933 -0.344467
v -0.907872 0.309302 -0.343576
v -0.907872 0.308041 -0.344837
v -0.907872 0.308933 -0.344467
v -0.907872 0.305566 -0.344837
v -0.907872 0.304305 -0.346098
v -0.907872 0.304674 -0.345206
v 0.907872 0.304305 -0.346098
v 0.907872 0.305566 -0.344837
v 0.907872 0.304674 -0.345206
v -0.907872 0.304273 -0.626271
v 0.907872 0.304273 -0.626271
v -0.907872 0.456441 -0.939661
v 0.907872 0.456441 -0.939661
v -0.907872 0.409099 -0.626271
v -0.907872 0.410360 -0.625010
v -0.907872 0.409990 -0.625902
v 0.907872 0.410360 -0.625010
v 0.907872 0.409099 -0.626271
v 0.907872 0.409990 -0.625902
v 0.907872 0.411620 -0.620461
v 0.907872 0.410360 -0.621722
v 0.907872 0.410729 -0.620830
v 0.907872 0.461438 -0.621722
v 0.907872 0.460177 -0.620461
v 0.907872 0.461069 -0.620830
v -0.907872 0.460177 -0.620461
v -0.907872 0.461438 -0.621722
v -0.907872 0.461069 -0.620830
v -0.907872 0.410360 -0.621722
v -0.907872 0.411620 -0.620461
v -0.907872 0.410729 -0.620830
v 0.907872 0.460177 -0.657972
v 0.907872 0.461438 -0.656711
v 0.907872 0.461069 -0.657603
v -0.907872 0.461438 -0.656711
v -0.907872 0.460177 -0.657972
v -0.907872 0.461069 -0.657603
v -0.907872 0.457702 -0.657972
v -0.907872 0.456441 -0.659233
v -0.907872 0.456810 -0.658341
v 0.907872 0.456441 -0.659233
v 0.907872 0.457702 -0.657972
v 0.907872 0.456810 -0.658341
v -0.907872 0.456409 -0.939406
v 0.907872 0.456409 -0.939406
v -0.907872 0.608577 -1.252797
v 0.907872 0.608577 -1.252797
v -0.907872 0.561235 -0.939406
v -0.907872 0.562496 -0.938145
v -0.907872 0.562127 -0.939037
v 0.907872 0.562496 -0.938145
v 0.907872 0.561235 -0.939406
v 0.907872 0.562127 -0.939037
v 0.907872 0.563757 -0.933596
v 0.907872 0.562496 -0.934857
v 0.907872 0.562865 -0.933966
v 0.907872 0.613575 -0.934857
v 0.907872 0.612314 -0.933596
v 0.907872 0.613205 -0.933966
v -0.907872 0.612314 -0.933596
v -0.907872 0.613575 -0.934857
v -0.907872 0.613205 -0.933966
v -0.907872 0.562496 -0.934857
v -0.907872 0.563757 -0.933596
v -0.907872 0.562865 -0.933966
v 0.907872 0.612314 -0.971108
v 0.907872 0.613575 -0.969847
v 0.907872 0.613205 -0.970738
v -0.907872 0.613575 -0.969847
v -0.907872 0.612314 -0.971108
v -0.907872 0.613205 -0.970738
v -0.907872 0.609838 -0.971107
v -0.907872 0.608577 -0.972368
v -0.907872 0.608947 -0.971477
v 0.907872 0.608577 -0.972368
v 0.907872 0.609838 -0.971107
v 0.907872 0.608947 -0.971477
vn -0.0000 -0.9961 0.0880
vn -0.0000 0.9999 0.0103
vn -0.0001 0.9999 -0.0103
vn -0.0000 0.9999 -0.0103
vn -0.0001 -0.0075 1.0000
vn -0.0000 -0.0075 1.0000
vn -0.0001 0.0075 1.0000
vn -0.0000 0.0075 1.0000
vn -0.0000 1.0000 -0.0013
vn -0.0000 1.0000 -0.0000
vn -0.0000 0.1090 -0.9940
vn -0.0000 -0.7071 0.7071
vn -0.0000 -0.0035 1.0000
vn -0.0000 0.7071 0.7071
vn -0.0000 0.7071 -0.7071
vn -0.0000 -0.0000 1.0000
vn -0.0001 1.0000 -0.0013
vt -0.025281 0.395469
vt -0.958202 0.395469
vt -0.958202 0.391482
vt -0.025281 0.391482
vt 0.000963 0.433914
vt 0.000963 0.391482
vt 0.933884 0.391482
vt 0.933884 0.433913
vt 0.000000 0.389200
vt 1.000000 0.389200
vt 1.000000 0.434160
vt 0.000000 0.434160
vt 0.000000 0.001297
vt 1.000000 0.001297
vt 1.000000 0.289804
vt 0.000000 0.289804
vt 0.933884 0.389952
vt 0.000963 0.389953
vt -0.025281 0.396998
vt -0.958202 0.396998
vt 1.000000 0.388032
vt 0.000000 0.388032
vt 0.000000 0.386865
vt 1.000000 0.386865
vt 0.933884 0.435442
vt 0.000963 0.435443
vt 1.000000 0.435328
vt 0.000000 0.435328
vt -0.958202 0.389953
vt -0.025281 0.389953
vt 0.000000 0.000000
vt 1.000000 0.000000
vt 0.274719 0.395469
vt -0.658202 0.395469
vt -0.658202 0.391482
vt 0.274719 0.391482
vt 0.300963 0.433914
vt 0.300963 0.391482
vt 1.233884 0.391482
vt 1.233884 0.433913
vt 0.300000 0.389200
vt 1.300000 0.389200
vt 1.300000 0.434160
vt 0.300000 0.434160
vt 0.300000 0.001297
vt 1.300000 0.001297
vt 1.300000 0.289804
vt 0.300000 0.289804
vt 1.233884 0.389952
vt 0.300963 0.389953
vt 0.274719 0.396998
vt -0.658202 0.396998
vt 1.300000 0.388032
vt 0.300000 0.388032
vt 0.300000 0.386865
vt 1.300000 0.386865
vt 1.233884 0.435442
vt 0.300963 0.435443
vt 1.300000 0.435328
vt 0.300000 0.435328
vt -0.658202 0.389953
vt 0.274719 0.389953
vt 0.300000 0.000000
vt 1.300000 0.000000
vt 0.574719 0.395469
vt -0.358202 0.395469
vt -0.358202 0.391482
vt 0.574719 0.391482
vt 0.600963 0.433914
vt 0.600963 0.391482
vt 1.533884 0.391482
vt 1.533884 0.433913
vt 0.600000 0.389200
vt 1.600000 0.389200
vt 1.600000 0.434160
vt 0.600000 0.434160
vt 0.600000 0.001297
vt 1.600000 0.001297
vt 1.600000 0.289804
vt 0.600000 0.289804
vt 1.533884 0.389952
vt 0.600963 0.389953
vt 0.574719 0.396998
vt -0.358202 0.396998
vt 1.600000 0.388032
vt 0.600000 0.388032
vt 0.600000 0.386865
vt 1.600000 0.386865
vt 1.533884 0.435442
vt 0.600963 0.435443
vt 1.600000 0.435328
vt 0.600000 0.435328
vt -0.358202 0.389953
vt 0.574719 0.389953
vt 0.600000 0.000000
vt 1.600000 0.000000
vt 0.874719 0.395469
vt -0.058202 0.395469
vt -0.058202 0.391482
vt 0.874719 0.391482
vt 0.900963 0.433914
vt 0.900963 0.391482
vt 1.833884 0.391482
vt 1.833884 0.433913
vt 0.900000 0.389200
vt 1.900000 0.389200
vt 1.900000 0.434160
vt 0.900000 0.434160
vt 0.900000 0.001297
vt 1.900000 0.001297
vt 1.900000 0.289804
vt 0.900000 0.289804
vt 1.833884 0.389952
vt 0.900963 0.389953
vt 0.874719 0.396998
vt -0.058202 0.396998
vt 1.900000 0.388032
vt 0.900000 0.388032
vt 0.900000 0.386865
vt 1.900000 0.386865
vt 1.833884 0.435442
vt 0.900963 0.435443
vt 1.900000 0.435328
vt 0.900000 0.435328
vt -0.058202 0.389953
vt 0.874719 0.389953
vt 0.900000 0.000000
vt 1.900000 0.000000
s 1
usemtl old_concrete.stairs_concrete.01
f 30/13/9 32/14/9 4/15/10 3/16/10
f 10/21/12 7/22/12 5/23/13 9/24/13
f 31/31/15 34/32/15 32/14/9 30/13/9
f 1/16/16 2/15/16 9/24/13 5/23/13
f 64/45/9 66/46/17 38/47/10 37/48/10
f 44/53/12 41/54/12 39/55/13 43/56/13
f 65/63/15 68/64/15 66/46/17 64/45/9
f 35/48/16 36/47/16 43/56/13 39/55/13
f 98/77/9 100/78/9 72/79/10 71/80/10
f 78/85/12 75/86/12 73/87/13 77/88/13
f 99/95/15 102/96/15 100/78/9 98/77/9
f 69/80/16 70/79/16 77/88/13 73/87/13
f 132/109/9 134/110/9 106/111/10 105/112/10
f 112/117/12 109/118/12 107/119/13 111/120/13
f 133/127/15 136/128/15 134/110/9 132/109/9
f 103/112/16 104/111/16 111/120/13 107/119/13
usemtl old_concrete.stairs_metal.01
f 6/1/1 8/2/1 12/3/1 20/4/1
f 14/5/2 24/6/3 26/7/4 18/8/2
f 21/9/5 11/10/6 15/11/7 17/12/8
f 27/17/11 23/18/11 33/18/11 29/17/11
f 8/2/1 6/1/1 7/19/12 10/20/12
f 14/5/2 18/8/2 19/25/14 16/26/14
f 16/27/14 19/28/14 17/12/8 15/11/7
f 11/10/6 21/9/5 22/22/12 13/21/12
f 13/29/12 22/30/12 20/4/1 12/3/1
f 23/18/11 27/17/11 28/17/15 25/18/15
f 25/18/15 28/17/15 26/7/4 24/6/3
f 29/17/11 33/18/11 34/18/15 31/17/15
f 40/33/1 42/34/1 46/35/1 54/36/1
f 48/37/2 58/38/3 60/39/4 52/40/2
f 55/41/5 45/42/6 49/43/8 51/44/8
f 61/49/11 57/50/11 67/50/11 63/49/11
f 42/34/1 40/33/1 41/51/12 44/52/12
f 48/37/2 52/40/2 53/57/14 50/58/14
f 50/59/14 53/60/14 51/44/8 49/43/8
f 45/42/6 55/41/5 56/54/12 47/53/12
f 47/61/12 56/62/12 54/36/1 46/35/1
f 57/50/11 61/49/11 62/49/15 59/50/15
f 59/50/15 62/49/15 60/39/4 58/38/3
f 63/49/11 67/50/11 68/50/15 65/49/15
f 74/65/1 76/66/1 80/67/1 88/68/1
f 82/69/2 92/70/3 94/71/4 86/72/2
f 89/73/5 79/74/6 83/75/8 85/76/8
f 95/81/11 91/82/11 101/82/11 97/81/11
f 76/66/1 74/65/1 75/83/12 78/84/12
f 82/69/2 86/72/2 87/89/14 84/90/14
f 84/91/14 87/92/14 85/76/8 83/75/8
f 79/74/6 89/73/5 90/86/12 81/85/12
f 81/93/12 90/94/12 88/68/1 80/67/1
f 91/82/11 95/81/11 96/81/15 93/82/15
f 93/82/15 96/81/15 94/71/4 92/70/3
f 97/81/11 101/82/11 102/82/15 99/81/15
f 108/97/1 110/98/1 114/99/1 122/100/1
f 116/101/2 126/102/3 128/103/4 120/104/2
f 123/105/5 113/106/6 117/107/8 119/108/8
f 129/113/11 125/114/11 135/114/11 131/113/11
f 110/98/1 108/97/1 109/115/12 112/116/12
f 116/101/2 120/104/2 121/121/14 118/122/14
f 118/123/14 121/124/14 119/108/8 117/107/8
f 113/106/6 123/105/5 124/118/12 115/117/12
f 115/125/12 124/126/12 122/100/1 114/99/1
f 125/114/11 129/113/11 130/113/15 127/114/15
f 127/114/15 130/113/15 128/103/4 126/102/3
f 131/113/11 135/114/11 136/114/15 133/113/15
